<svg width="195" height="195" fill="none" xmlns="http://www.w3.org/2000/svg"><g clip-path="url(#clip0_145_2)"><path d="M5.078 137v-24.219L89.746 7.411h29.297v25.097L33.496 137H5.078zM7.715 35.73V7.41H81.25L56.738 35.73H7.715zM42.187 137l24.61-28.418h50.488V137H42.188z" fill="#46763B"/><path d="M148.504 187v-48.535H92.449l-25.976-25.977V83.289L92.449 57.41h14.649v45.996h59.57l25.098 25.977v31.738L165.887 187h-17.383zm0-93.262V80.75h-34.57V57.41h51.855l22.461 22.56v13.77h-39.746zM88.25 187l-21.777-25.879v-12.988h43.164v15.429h32.031V187H88.25z" fill="#57944A"/></g><defs><clipPath id="clip0_145_2"><path fill="#fff" d="M0 0h195v195H0z"/></clipPath></defs></svg>