<svg width="195" height="195" viewBox="0 0 195 195" fill="none" xmlns="http://www.w3.org/2000/svg">
<g clip-path="url(#clip0_145_2)">
<path d="M5.07812 137V112.781L89.7461 7.41016H119.043V32.5078L33.4961 137H5.07812ZM7.71484 35.7305V7.41016H81.25L56.7383 35.7305H7.71484ZM42.1875 137L66.7969 108.582H117.285V137H42.1875Z" fill="#46763B"/>
<path d="M148.504 187V138.465H92.4492L66.4727 112.488V83.2891L92.4492 57.4102H107.098V103.406H166.668L191.766 129.383V161.121L165.887 187H148.504ZM148.504 93.7383V80.75H113.934V57.4102H165.789L188.25 79.9688V93.7383H148.504ZM88.25 187L66.4727 161.121V148.133H109.637V163.562H141.668V187H88.25Z" fill="#57944A"/>
</g>
<defs>
<clipPath id="clip0_145_2">
<rect width="195" height="195" fill="white"/>
</clipPath>
</defs>
</svg>
